REM DIRINDEX 1\2\5,1\2\6,1\2\7,1\2\8,1\3\9,1\3\10,1\3\11,1\4\12,1\4\13,1\4\14,1\4\15,1\4\16
REM DIRNAME cjc034,folder01,folder02,folder03,folder04,folder05,folder06,folder07,folder08,folder09,folder10,folder11,folder12,folder13,folder14,folder15
TITLE ""
FILE "1200_2_sec04_1381_1400.mp3" MP3
  TRACK 01 AUDIO
    TITLE "0:"
    INDEX 01 00:00:00
  TRACK 02 AUDIO
    TITLE "11:cjc034_02870"
    INDEX 01 00:00:17
  TRACK 03 AUDIO
    TITLE "0:"
    INDEX 01 00:01:46
  TRACK 04 AUDIO
    TITLE "11:cjc034_02871"
    INDEX 01 00:02:16
  TRACK 05 AUDIO
    TITLE "0:"
    INDEX 01 00:04:54
  TRACK 06 AUDIO
    TITLE "10:cjc034_02872"
    INDEX 01 00:05:52
  TRACK 07 AUDIO
    TITLE "0:"
    INDEX 01 00:07:09
  TRACK 08 AUDIO
    TITLE "9:cjc034_02873"
    INDEX 01 00:07:21
  TRACK 09 AUDIO
    TITLE "0:"
    INDEX 01 00:08:40
  TRACK 10 AUDIO
    TITLE "10:cjc034_02874"
    INDEX 01 00:09:38
  TRACK 11 AUDIO
    TITLE "0:"
    INDEX 01 00:11:48
  TRACK 12 AUDIO
    TITLE "9:cjc034_02875"
    INDEX 01 00:11:54
  TRACK 13 AUDIO
    TITLE "0:"
    INDEX 01 00:13:12
  TRACK 14 AUDIO
    TITLE "10:cjc034_02876"
    INDEX 01 00:13:69
  TRACK 15 AUDIO
    TITLE "0:"
    INDEX 01 00:16:46
  TRACK 16 AUDIO
    TITLE "9:cjc034_02877"
    INDEX 01 00:16:49
  TRACK 17 AUDIO
    TITLE "0:"
    INDEX 01 00:18:03
  TRACK 18 AUDIO
    TITLE "10:cjc034_02878"
    INDEX 01 00:18:64
  TRACK 19 AUDIO
    TITLE "0:"
    INDEX 01 00:20:43
  TRACK 20 AUDIO
    TITLE "9:cjc034_02879"
    INDEX 01 00:20:47
  TRACK 21 AUDIO
    TITLE "0:"
    INDEX 01 00:22:05
  TRACK 22 AUDIO
    TITLE "10:cjc034_02880"
    INDEX 01 00:22:60
  TRACK 23 AUDIO
    TITLE "0:"
    INDEX 01 00:24:12
  TRACK 24 AUDIO
    TITLE "9:cjc034_02881"
    INDEX 01 00:24:18
  TRACK 25 AUDIO
    TITLE "0:"
    INDEX 01 00:25:46
  TRACK 26 AUDIO
    TITLE "10:cjc034_02882"
    INDEX 01 00:26:28
  TRACK 27 AUDIO
    TITLE "0:"
    INDEX 01 00:28:15
  TRACK 28 AUDIO
    TITLE "9:cjc034_02883"
    INDEX 01 00:28:23
  TRACK 29 AUDIO
    TITLE "0:"
    INDEX 01 00:30:42
  TRACK 30 AUDIO
    TITLE "10:cjc034_02884"
    INDEX 01 00:31:24
  TRACK 31 AUDIO
    TITLE "0:"
    INDEX 01 00:33:09
  TRACK 32 AUDIO
    TITLE "9:cjc034_02885"
    INDEX 01 00:33:13
  TRACK 33 AUDIO
    TITLE "0:"
    INDEX 01 00:37:03
  TRACK 34 AUDIO
    TITLE "10:cjc034_02886"
    INDEX 01 00:37:59
  TRACK 35 AUDIO
    TITLE "0:"
    INDEX 01 00:39:62
  TRACK 36 AUDIO
    TITLE "9:cjc034_02887"
    INDEX 01 00:39:70
  TRACK 37 AUDIO
    TITLE "0:"
    INDEX 01 00:43:27
  TRACK 38 AUDIO
    TITLE "10:cjc034_02888"
    INDEX 01 00:44:11
  TRACK 39 AUDIO
    TITLE "0:"
    INDEX 01 00:46:39
  TRACK 40 AUDIO
    TITLE "9:cjc034_02889"
    INDEX 01 00:46:47
  TRACK 41 AUDIO
    TITLE "0:"
    INDEX 01 00:47:74
  TRACK 42 AUDIO
    TITLE "10:cjc034_02890"
    INDEX 01 00:48:63
  TRACK 43 AUDIO
    TITLE "0:"
    INDEX 01 00:51:69
  TRACK 44 AUDIO
    TITLE "9:cjc034_02891"
    INDEX 01 00:51:71
  TRACK 45 AUDIO
    TITLE "0:"
    INDEX 01 00:53:39
  TRACK 46 AUDIO
    TITLE "10:cjc034_02892"
    INDEX 01 00:54:23
  TRACK 47 AUDIO
    TITLE "0:"
    INDEX 01 00:55:63
  TRACK 48 AUDIO
    TITLE "9:cjc034_02893"
    INDEX 01 00:55:71
  TRACK 49 AUDIO
    TITLE "0:"
    INDEX 01 00:57:31
  TRACK 50 AUDIO
    TITLE "10:cjc034_02894"
    INDEX 01 00:58:13
  TRACK 51 AUDIO
    TITLE "0:"
    INDEX 01 00:59:69
  TRACK 52 AUDIO
    TITLE "9:cjc034_02895"
    INDEX 01 01:00:00
  TRACK 53 AUDIO
    TITLE "0:"
    INDEX 01 01:02:30
  TRACK 54 AUDIO
    TITLE "10:cjc034_02896"
    INDEX 01 01:03:10
  TRACK 55 AUDIO
    TITLE "0:"
    INDEX 01 01:08:03
  TRACK 56 AUDIO
    TITLE "9:cjc034_02897"
    INDEX 01 01:08:09
  TRACK 57 AUDIO
    TITLE "0:"
    INDEX 01 01:09:24
  TRACK 58 AUDIO
    TITLE "10:cjc034_02898"
    INDEX 01 01:10:18
  TRACK 59 AUDIO
    TITLE "0:"
    INDEX 01 01:15:54
  TRACK 60 AUDIO
    TITLE "9:cjc034_02899"
    INDEX 01 01:15:60
  TRACK 61 AUDIO
    TITLE "0:"
    INDEX 01 01:17:16
  TRACK 62 AUDIO
    TITLE "10:cjc034_02900"
    INDEX 01 01:17:73
  TRACK 63 AUDIO
    TITLE "0:"
    INDEX 01 01:19:64
  TRACK 64 AUDIO
    TITLE "9:cjc034_02901"
    INDEX 01 01:19:68
  TRACK 65 AUDIO
    TITLE "0:"
    INDEX 01 01:21:57
  TRACK 66 AUDIO
    TITLE "10:cjc034_02902"
    INDEX 01 01:22:35
  TRACK 67 AUDIO
    TITLE "0:"
    INDEX 01 01:25:39
  TRACK 68 AUDIO
    TITLE "9:cjc034_02903"
    INDEX 01 01:25:45
  TRACK 69 AUDIO
    TITLE "0:"
    INDEX 01 01:27:06
  TRACK 70 AUDIO
    TITLE "11:cjc034_02904"
    INDEX 01 01:28:55
  TRACK 71 AUDIO
    TITLE "0:"
    INDEX 01 01:31:02
  TRACK 72 AUDIO
    TITLE "10:cjc034_02905"
    INDEX 01 01:31:73
  TRACK 73 AUDIO
    TITLE "0:"
    INDEX 01 01:33:58
  TRACK 74 AUDIO
    TITLE "9:cjc034_02906"
    INDEX 01 01:33:68
  TRACK 75 AUDIO
    TITLE "0:"
    INDEX 01 01:35:69
  TRACK 76 AUDIO
    TITLE "10:cjc034_02907"
    INDEX 01 01:36:54
  TRACK 77 AUDIO
    TITLE "0:"
    INDEX 01 01:38:47
  TRACK 78 AUDIO
    TITLE "9:cjc034_02908"
    INDEX 01 01:38:49
  TRACK 79 AUDIO
    TITLE "0:"
    INDEX 01 01:40:33
  TRACK 80 AUDIO
    TITLE "10:cjc034_02909"
    INDEX 01 01:41:16
  TRACK 81 AUDIO
    TITLE "0:"
    INDEX 01 01:44:42
  TRACK 82 AUDIO
    TITLE "9:cjc034_02910"
    INDEX 01 01:44:50
  TRACK 83 AUDIO
    TITLE "0:"
    INDEX 01 01:46:39
  TRACK 84 AUDIO
    TITLE "10:cjc034_02911"
    INDEX 01 01:47:23
  TRACK 85 AUDIO
    TITLE "0:"
    INDEX 01 01:49:02
  TRACK 86 AUDIO
    TITLE "9:cjc034_02912"
    INDEX 01 01:49:04
  TRACK 87 AUDIO
    TITLE "0:"
    INDEX 01 01:50:56
